<svg width="16" height="14" viewBox="0 0 16 14" fill="none" xmlns="http://www.w3.org/2000/svg">
<path id="Vector" d="M2 13.75C1.5875 13.75 1.23438 13.6031 0.940625 13.3094C0.646875 13.0156 0.5 12.6625 0.5 12.25V8.5C0.5 8.0875 0.646875 7.73437 0.940625 7.44062C1.23438 7.14687 1.5875 7 2 7H5.1125C5.3 7 5.4625 7.0625 5.6 7.1875C5.7375 7.3125 5.81875 7.4625 5.84375 7.6375C5.90625 8.0625 6.15625 8.4375 6.59375 8.7625C7.03125 9.0875 7.5 9.25 8 9.25C8.5 9.25 8.96875 9.0875 9.40625 8.7625C9.84375 8.4375 10.0938 8.0625 10.1562 7.6375C10.1813 7.4625 10.2625 7.3125 10.4 7.1875C10.5375 7.0625 10.7 7 10.8875 7H14C14.4125 7 14.7656 7.14687 15.0594 7.44062C15.3531 7.73437 15.5 8.0875 15.5 8.5V12.25C15.5 12.6625 15.3531 13.0156 15.0594 13.3094C14.7656 13.6031 14.4125 13.75 14 13.75H2ZM2 12.25H14V8.5H11.45C11.1375 9.1875 10.6719 9.73437 10.0531 10.1406C9.43438 10.5469 8.75 10.75 8 10.75C7.25 10.75 6.56563 10.5469 5.94688 10.1406C5.32812 9.73437 4.8625 9.1875 4.55 8.5H2V12.25ZM11.675 5.575C11.5375 5.4375 11.4688 5.2625 11.4688 5.05C11.4688 4.8375 11.5375 4.6625 11.675 4.525L13.2875 2.9125C13.425 2.775 13.6 2.70625 13.8125 2.70625C14.025 2.70625 14.2 2.775 14.3375 2.9125C14.475 3.05 14.5438 3.225 14.5438 3.4375C14.5438 3.65 14.475 3.825 14.3375 3.9625L12.725 5.575C12.5875 5.7125 12.4125 5.78125 12.2 5.78125C11.9875 5.78125 11.8125 5.7125 11.675 5.575ZM4.325 5.575C4.1875 5.7125 4.0125 5.78125 3.8 5.78125C3.5875 5.78125 3.4125 5.7125 3.275 5.575L1.6625 3.9625C1.525 3.825 1.45625 3.65 1.45625 3.4375C1.45625 3.225 1.525 3.05 1.6625 2.9125C1.8 2.775 1.975 2.70625 2.1875 2.70625C2.4 2.70625 2.575 2.775 2.7125 2.9125L4.325 4.525C4.4625 4.6625 4.53125 4.8375 4.53125 5.05C4.53125 5.2625 4.4625 5.4375 4.325 5.575ZM8 4C7.7875 4 7.60938 3.92812 7.46563 3.78437C7.32188 3.64062 7.25 3.4625 7.25 3.25V1C7.25 0.7875 7.32188 0.609375 7.46563 0.465625C7.60938 0.321875 7.7875 0.25 8 0.25C8.2125 0.25 8.39063 0.321875 8.53438 0.465625C8.67813 0.609375 8.75 0.7875 8.75 1V3.25C8.75 3.4625 8.67813 3.64062 8.53438 3.78437C8.39063 3.92812 8.2125 4 8 4Z" fill="#1D3557"/>
</svg>
